<svg xmlns="http://www.w3.org/2000/svg" width="191" height="37" fill="none"><g fill="#101820"><path d="M38.359 21.238h-5.882L22.207 1.173H27.5l8 15.927 8.26-15.927h4.91L38.366 21.246z"/><path d="M38.616 21.661H32.22L21.52.75h6.239l7.751 15.42L43.502.75h5.849zm-5.882-.839h5.367L47.98 1.59h-3.963L35.5 18.022 27.234 1.59H22.89l9.845 19.225z"/></g><g fill="#101820"><path d="M80.207 5.186v16.052h-4.935V5.186h-8.798V1.173h22.523v4.013H80.2z"/><path d="M80.623 21.661h-5.775V5.601H66.05V.75h23.363V5.6h-8.799v16.052zm-4.936-.839h4.097V4.762h8.798V1.59H66.898v3.173h8.798v16.052z"/></g><g fill="#101820"><path d="M112.119 10.503a4.75 4.75 0 0 1-3.249 2.177l6.007 8.566h-5.475l-5.342-7.826h-7.801v7.826H91.48V1.173h14.291c3.04 0 5.034.873 6.081 2.227.715.897 1.072 2.044 1.072 3.63 0 1.455-.283 2.66-.814 3.473zm-4.237-4.453c-.432-.64-1.18-.947-2.609-.947H96.3v4.445h9.256c1.304 0 2.018-.282 2.326-.79.257-.406.332-.946.332-1.354 0-.481-.075-1.021-.332-1.354"/><path d="M115.692 21.661h-6.498l-5.342-7.826h-7.153v7.826h-5.616V.75h14.713c2.991 0 5.21.822 6.414 2.384.79.989 1.164 2.227 1.164 3.888 0 1.537-.308 2.817-.881 3.697a5.14 5.14 0 0 1-2.9 2.219l6.115 8.715zm-6.057-.839h4.445l-5.932-8.45.664-.107a4.32 4.32 0 0 0 2.958-1.978c.49-.756.748-1.877.748-3.257 0-1.462-.316-2.533-.981-3.364-1.046-1.355-3.032-2.069-5.757-2.069H91.905v19.225h3.938v-7.826h8.441l5.343 7.826zm-4.079-10.85h-9.671V4.688h9.396c1.529 0 2.41.332 2.95 1.121.274.366.415.897.415 1.604 0 .349-.05 1.022-.399 1.578-.407.673-1.254.989-2.683.989zm-8.84-.84h8.831q1.608-.002 1.969-.59c.249-.39.274-.93.274-1.138 0-.498-.091-.897-.241-1.096l-.016-.017c-.258-.374-.723-.764-2.26-.764h-8.557z"/></g><g fill="#101820"><path d="M157.98 21.237h-12.944V.874h12.786c4.67 0 7.37 1.321 8.741 3.63.988 1.504 1.296 3.324 1.296 6.249 0 3.165-.308 5.01-1.222 6.563-1.37 2.468-4.046 3.913-8.665 3.913zm5.01-10.376c-.025-1.737-.233-3.19-.806-3.972-.905-1.404-2.409-2.027-5.084-2.027h-7.187v12.346h7.054c2.799 0 4.361-.648 5.242-1.994.598-.856.781-2.492.781-4.362z"/><path d="M157.98 21.661h-13.368V.451h13.21c4.587 0 7.569 1.254 9.106 3.838.972 1.487 1.354 3.306 1.354 6.472 0 3.348-.348 5.184-1.279 6.78-1.545 2.774-4.503 4.128-9.031 4.128zm-12.512-.847h12.521c4.187 0 6.904-1.213 8.291-3.698.848-1.462 1.163-3.182 1.163-6.355 0-2.983-.34-4.67-1.229-6.015-1.379-2.318-4.121-3.44-8.383-3.44h-12.363zm11.507-3.174h-7.477V4.446h7.61c2.808 0 4.437.665 5.442 2.219.556.764.839 2.102.872 4.195 0 2.31-.274 3.772-.856 4.611-.98 1.504-2.708 2.177-5.591 2.177zm-6.63-.848h6.63c2.559 0 4.071-.556 4.885-1.803.474-.68.706-2.06.706-4.12-.024-1.853-.274-3.108-.722-3.722-.848-1.305-2.26-1.853-4.744-1.853h-6.763v11.498z"/></g><g fill="#101820"><path d="M170.417 21.237V.874h19.899V4.97h-15.071v4.021h14.63v4.071h-14.63v4.071h15.253v4.096h-20.072z"/><path d="M190.914 21.661h-20.928V.451h20.745V5.4H175.66v3.166h14.631v4.927H175.66v3.224h15.254v4.951zm-20.073-.847h19.225v-3.249h-15.253v-4.927h14.63V9.415h-14.63V4.546h15.071v-3.24h-19.043z"/></g><g fill="#101820"><path d="M17.082 1.173h-1.105l-1.911 3.772.79 1.803s1.694 3.448 2.55 5.201l2.442 4.877h.017l.573 1.18 1.57 3.24h5.243z"/><path d="M27.94 21.661h-6.19l-2.276-4.652-2.442-4.877c-.848-1.753-2.55-5.201-2.55-5.201l-.873-2.002 2.118-4.18h1.62L27.95 21.662zm-5.657-.839h4.295L16.824 1.59h-.59l-1.703 3.364.706 1.62s1.695 3.44 2.543 5.185l3.04 6.057z"/></g><g fill="#4C62FD"><path d="M11.307 1.173.697 21.238h5.11l1.92-3.805.307-.615h.008l2.41-4.753 2.717-5.367.897-1.77.008.009 1.91-3.764z"/><path d="M6.065 21.661H0L11.05.75h5.616L14.057 5.9zm-4.67-.839H5.55l8.532-16.857 1.213-2.376h-3.738z"/></g><g fill="#101820"><path d="M3.822 30.85v5.608H2.293V30.85H.05v-1.271h6.015v1.27zM15.42 32.835a1.29 1.29 0 0 1-.88.648l1.611 2.975h-1.686l-1.338-2.675h-1.811v2.675H9.837v-6.88h3.83c.88 0 1.42.291 1.703.773.208.316.308.715.308 1.28 0 .523-.1.93-.25 1.204zm-1.304-1.628c-.125-.24-.382-.357-.79-.357h-2.002v1.72h2.086c.332 0 .59-.1.69-.291.057-.133.099-.358.099-.532 0-.2-.025-.432-.075-.548zM20.937 36.45H19.4l2.667-6.88h1.894l2.517 6.88h-1.57l-.582-1.62h-2.774l-.607 1.62zm2.201-4.977-.158-.565-.166.573-.78 2.11h1.835zM33.623 36.45H30.2v-6.88h3.324c1.105 0 1.786.258 2.193.781.432.532.548 1.205.548 2.543 0 1.487-.116 2.143-.506 2.683-.407.565-1.047.873-2.144.873zm1.197-3.54c0-.764-.083-1.404-.333-1.645-.299-.299-.59-.39-1.171-.39h-1.62v4.295h1.612c.606 0 .938-.125 1.213-.415.249-.283.307-1.014.307-1.837zM40.362 36.45v-6.88h5.25v1.296h-3.78v1.488h3.639v1.304h-3.639v1.495h3.822v1.288H40.36zM62.42 36.45h-1.687l-1.221-5.002-1.272 5.002h-1.686l-1.978-6.88h1.604l1.33 5.019 1.179-5.019h1.687l1.196 5.019 1.337-5.019h1.463l-1.961 6.88zM68.11 36.45v-6.88h1.53v6.88zM77.175 30.85v5.608h-1.529V30.85h-2.235v-1.271h6.015v1.27h-2.251M87.626 36.45V33.69h-2.94v2.758H83.19V29.57h1.495v2.775h2.941V29.57h1.496v6.88zM104.708 35.394c-.482.698-1.346 1.155-2.725 1.155-1.105 0-1.944-.249-2.509-.822-.565-.557-.872-1.437-.872-2.734 0-1.163.266-2.019.797-2.592.557-.59 1.379-.93 2.576-.93 1.653 0 2.501.606 2.883 1.412.216.465.315.964.315 1.313h-1.528c0-.324-.108-.657-.283-.89-.266-.365-.689-.523-1.412-.523-.64 0-1.055.183-1.346.515-.316.35-.432.931-.432 1.729 0 .913.183 1.462.49 1.803.324.357.806.481 1.329.481.657 0 1.056-.199 1.297-.473.232-.258.34-.549.373-.93h1.521a2.6 2.6 0 0 1-.482 1.486zM114.96 30.576c.399.531.582 1.32.582 2.392 0 1.122-.216 1.911-.607 2.485-.481.714-1.395 1.096-2.741 1.096s-2.227-.365-2.725-1.08c-.424-.581-.623-1.404-.623-2.484 0-1.022.182-1.811.589-2.351.516-.715 1.363-1.163 2.759-1.163s2.243.39 2.766 1.105m-1.404 4.237c.333-.333.474-1.055.474-1.811s-.141-1.446-.424-1.753c-.299-.316-.656-.532-1.412-.532s-1.097.208-1.396.54c-.266.307-.424 1.014-.424 1.753 0 .74.166 1.487.515 1.836.275.283.648.465 1.313.465.715 0 1.08-.216 1.354-.498M123.775 36.45l-2.766-4.661v4.66h-1.437V29.57h1.753l2.65 4.429V29.57h1.437v6.88h-1.6369999999999998M131.244 30.875v1.479h3.473v1.312h-3.473v2.784h-1.495v-6.88h5.159v1.296h-3.664zM138.888 36.45v-6.88h1.529v6.88zM148.21 36.45h-3.423v-6.88h3.323c1.105 0 1.786.258 2.193.781.432.532.549 1.205.549 2.543 0 1.487-.117 2.143-.507 2.683-.407.565-1.047.873-2.144.873zm1.196-3.54c0-.764-.083-1.404-.332-1.645-.299-.299-.59-.39-1.18-.39h-1.62v4.295h1.612c.606 0 .939-.125 1.213-.415.249-.283.307-1.014.307-1.837zM154.948 36.45v-6.88h5.251v1.296h-3.781v1.488h3.639v1.304h-3.639v1.495h3.822v1.288h-5.292zM168.557 36.45l-2.767-4.661v4.66h-1.437V29.57h1.753l2.65 4.429V29.57h1.437v6.88h-1.636M180.288 35.394c-.482.698-1.346 1.155-2.725 1.155-1.105 0-1.944-.249-2.509-.822-.565-.557-.873-1.437-.873-2.734 0-1.163.266-2.019.798-2.592.556-.59 1.379-.93 2.575-.93 1.654 0 2.501.606 2.883 1.412.216.465.316.964.316 1.313h-1.529c0-.324-.108-.657-.282-.89-.266-.365-.69-.523-1.413-.523-.639 0-1.055.183-1.346.515-.315.35-.432.931-.432 1.729 0 .913.183 1.462.491 1.803.324.357.806.481 1.329.481.656 0 1.055-.199 1.296-.473.233-.258.341-.549.374-.93h1.52a2.6 2.6 0 0 1-.482 1.486zM184.749 36.45v-6.88H190v1.296h-3.78v1.488h3.639v1.304h-3.639v1.495h3.822v1.288h-5.293z"/></g><g fill="#101820"><path d="M59.993 1.173h-1.105l-1.91 3.772.789 1.803s1.695 3.448 2.55 5.201l2.443 4.877h.017l.573 1.18 1.57 3.24h5.243z"/><path d="M70.852 21.661h-6.19l-2.276-4.652-2.442-4.877c-.848-1.753-2.551-5.201-2.551-5.201l-.872-2.002 2.118-4.18h1.62l10.602 20.912zm-5.658-.839h4.296L59.736 1.59h-.59l-1.703 3.364.706 1.62s1.695 3.44 2.542 5.185l3.041 6.057z"/></g><g fill="#4C62FD"><path d="M54.22 1.173 43.61 21.238h5.11l1.918-3.805.308-.615h.016l2.401-4.753 2.717-5.367.898-1.77.008.009 1.91-3.764z"/><path d="M48.985 21.661H42.92L53.97.75h5.616L56.978 5.9l-7.985 15.761zm-4.677-.839h4.154l8.532-16.849 1.213-2.376h-3.739z"/></g><g fill="#101820"><path d="M133.164 1.173h-1.105l-1.911 3.772.789 1.803s1.695 3.448 2.551 5.201l2.442 4.877h.017l.573 1.18 1.57 3.24h5.243z"/><path d="M144.014 21.661h-6.189l-2.277-4.652-2.442-4.877c-.848-1.753-2.551-5.201-2.551-5.201l-.872-2.002 2.118-4.18h1.62l10.602 20.912zm-5.658-.839h4.296l-9.746-19.225h-.59l-1.703 3.365.706 1.62s1.695 3.44 2.543 5.184l3.04 6.057 1.463 3.007z"/></g><g fill="#4C62FD"><path d="m127.381 1.173-10.61 20.065h5.118l1.911-3.805.308-.615h.016l2.41-4.753 2.716-5.367.889-1.77.009.009 1.911-3.764z"/><path d="M122.147 21.661h-6.065L127.132.75h5.616l-2.625 5.184-7.968 15.727zm-4.678-.839h4.155l8.549-16.882 1.196-2.343h-3.739z"/></g></svg>